<svg xmlns="http://www.w3.org/2000/svg" xmlns:xlink="http://www.w3.org/1999/xlink" width="100%" version="1.1" viewBox="0 0 340 200"><title>api</title><desc>Created with Sketch.</desc><defs><ellipse id="path-1" cx="25" cy="26.316" rx="25" ry="26.316"/><ellipse id="path-3" cx="21" cy="22.105" rx="20.5" ry="21.579"/><ellipse id="path-5" cx="15" cy="15.789" rx="15" ry="15.789"/><ellipse id="path-7" cx="15" cy="15.789" rx="15" ry="15.789"/><ellipse id="path-9" cx="15" cy="15.789" rx="15" ry="15.789"/><ellipse id="path-11" cx="15" cy="15.789" rx="15" ry="15.789"/><rect id="path-13" width="50" height="52.632" x="0" y="0" rx="8"/></defs><g id="Page-1" fill="none" fill-rule="evenodd" stroke="none" stroke-width="1"><g id="api" transform="translate(6.000000, 0.000000)"><g id="Page-1"><g id="Leistungen-Var-Copy-4"><g id="API"><g id="Group-5"><g id="API"><path id="Path-7" stroke="#DCE9F1" stroke-width="6" d="M169,95.7894737 L183,183.157895"/><path id="Path-13" stroke="#DCE9F1" stroke-width="6" d="M168,95.7894737 L94,142.105263"/><path id="Path-14" stroke="#DCE9F1" stroke-width="6" d="M146,80 L70,45.2631579"/><path id="Path-15" stroke="#DCE9F1" stroke-width="6" d="M169,94.7368421 L302,143.157895"/><g id="Oval-6-Clipped" transform="translate(279.000000, 116.842105)"><mask id="mask-2" fill="#fff"><use xlink:href="#path-1"/></mask><g id="Oval-6" fill="#A0DCF0" stroke="#009FE3" stroke-width="8" mask="url(#mask-2)"><ellipse id="path-1" cx="25" cy="26.316" rx="25" ry="26.316"/></g></g><path id="Path-18" stroke="#DCE9F1" stroke-width="6" d="M235,45.2631579 L170,95.7894737"/><path id="Path-19" stroke="#DCE9F1" stroke-width="6" d="M154,13.6842105 L169,93.6842105"/><path id="Path-16" stroke="#C7D7E2" stroke-dasharray="4 4" d="M30.6220689,107.757358 L167.555114,91.5789474"/><g id="Oval-2-Clipped" transform="translate(49.000000, 22.105263)"><mask id="mask-4" fill="#fff"><use xlink:href="#path-3"/></mask><g id="Oval-2" fill="#DCE9F1" stroke="#C7D7E2" stroke-width="8" mask="url(#mask-4)"><ellipse id="path-3" cx="21" cy="22.105" rx="20.5" ry="21.579"/></g></g><g id="Oval-2-Copy-Clipped" transform="translate(139.000000, 0.000000)"><mask id="mask-6" fill="#fff"><use xlink:href="#path-5"/></mask><g id="Oval-2-Copy" fill="#A0DCF0" stroke="#009FE3" stroke-width="8" mask="url(#mask-6)"><ellipse id="path-5" cx="15" cy="15.789" rx="15" ry="15.789"/></g></g><g id="Oval-2-Copy-2-Clipped" transform="translate(78.000000, 126.315789)"><mask id="mask-8" fill="#fff"><use xlink:href="#path-7"/></mask><g id="Oval-2-Copy-2" fill="#ACC7D5" stroke="#83A6BF" stroke-width="8" mask="url(#mask-8)"><ellipse id="path-7" cx="15" cy="15.789" rx="15" ry="15.789"/></g></g><ellipse id="Oval-2-Copy-5" cx="15" cy="109.474" stroke="#C7D7E2" stroke-dasharray="4 4" rx="15" ry="15.789"/><g id="Oval-2-Copy-3-Clipped" transform="translate(169.000000, 168.421053)"><mask id="mask-10" fill="#fff"><use xlink:href="#path-9"/></mask><g id="Oval-2-Copy-3" fill="#DCE9F1" stroke="#C7D7E2" stroke-width="8" mask="url(#mask-10)"><ellipse id="path-9" cx="15" cy="15.789" rx="15" ry="15.789"/></g></g><g id="Oval-2-Copy-4-Clipped" transform="translate(220.000000, 28.421053)"><mask id="mask-12" fill="#fff"><use xlink:href="#path-11"/></mask><g id="Oval-2-Copy-4" fill="#ACC7D5" stroke="#83A6BF" stroke-width="8" mask="url(#mask-12)"><ellipse id="path-11" cx="15" cy="15.789" rx="15" ry="15.789"/></g></g><g id="Rectangle-3-Clipped" transform="translate(144.000000, 66.315789)"><mask id="mask-14" fill="#fff"><use xlink:href="#path-13"/></mask><g id="Rectangle-3" fill="#FFF" stroke="#C7D7E2" stroke-width="16" mask="url(#mask-14)"><rect id="path-13" width="50" height="52.632" x="0" y="0" rx="8"/></g></g></g></g></g></g></g></g></g></svg>